General
Complete name                    : The Ring (2002) HDTVrip 720P (English+Hindi)
Format                           : Matroska
File size                        : 1.69 GiB
Duration                         : 1h 55mn
Overall bit rate                 : 2 087 Kbps

Video
ID                               : 1
Format                           : AVC
Format/Info                      : Advanced Video Codec
Format profile                   : High@L4.1
Format settings, CABAC           : Yes
Format settings, ReFrames        : 6 frames
Muxing mode                      : Header stripping
Codec ID                         : V_MPEG4/ISO/AVC
Duration                         : 1h 55mn
Bit rate                         : 1 544 Kbps
Width                            : 1 280 pixels
Height                           : 720 pixels
Display aspect ratio             : 16:9
Frame rate                       : 23.976 fps
Color space                      : YUV
Chroma subsampling               : 4:2:0
Bit depth                        : 8 bits
Scan type                        : Progressive
Bits/(Pixel*Frame)               : 0.070
Stream size                      : 1.22 GiB (72%)
Writing library                  : x264 core 115 r1995 c1e60b9

Audio #1
ID                               : 2
Format                           : AC-3
Format/Info                      : Audio Coding 3
Mode extension                   : CM (complete main)
Muxing mode                      : Header stripping
Codec ID                         : A_AC3
Duration                         : 1h 55mn
Bit rate mode                    : Constant
Bit rate                         : 320 Kbps
Channel(s)                       : 6 channels
Channel positions                : Front: L C R, Side: L R, LFE
Sampling rate                    : 48.0 KHz
Bit depth                        : 16 bits
Compression mode                 : Lossy
Stream size                      : 265 MiB (15%)
Title                            : 5.1
Language                         : English

Audio #2
ID                               : 3
Format                           : AC-3
Format/Info                      : Audio Coding 3
Mode extension                   : CM (complete main)
Muxing mode                      : Header stripping
Codec ID                         : A_AC3
Duration                         : 1h 55mn
Bit rate mode                    : Constant
Bit rate                         : 224 Kbps
Channel(s)                       : 2 channels
Channel positions                : Front: L R
Sampling rate                    : 48.0 KHz
Bit depth                        : 16 bits
Compression mode                 : Lossy
Delay relative to video          : 32s 800ms
Stream size                      : 186 MiB (11%)
Title                            : nsh168810
Language                         : Hindi


Screenshots :
 
http://img594.imageshack.us/img594/8634/thering2002mkvsnapshot0.jpg 
http://img854.imageshack.us/img854/8634/thering2002mkvsnapshot0.jpg 
http://img828.imageshack.us/img828/8634/thering2002mkvsnapshot0.jpg 
http://img35.imageshack.us/img35/8634/thering2002mkvsnapshot0.jpg 
http://img684.imageshack.us/img684/8634/thering2002mkvsnapshot0.jpg 
http://img835.imageshack.us/img835/8634/thering2002mkvsnapshot0.jpg 
http://img840.imageshack.us/img840/8634/thering2002mkvsnapshot0.jpg 
http://img571.imageshack.us/img571/372/thering2002hdtvrip720pe.jpg
